<svg id="Layer_1" data-name="Layer 1" xmlns="http://www.w3.org/2000/svg" xmlns:xlink="http://www.w3.org/1999/xlink" viewBox="0 0 1366 758.14"><defs><style>.cls-1{fill:url(#linear-gradient);}</style><linearGradient id="linear-gradient" x1="949.56" y1="215.34" x2="144.55" y2="689.74" gradientUnits="userSpaceOnUse"><stop offset="0" stop-color="#3f72b5"/><stop offset="1" stop-color="#00bcd4"/></linearGradient></defs><title>bg</title><path class="cls-1" d="M15.5,720c49.84,0,90.39,14.26,136.2,31.9,5.59,2.16,11.31,4.34,17.29,4.56,9.51.35,18.4-4.25,27-8.31,80.37-37.95,178-37.13,257.73,2.16,7.08,3.49,14.38,7.35,22.27,7.33s15-3.84,21.95-7.29c79.18-39.11,176.13-40.19,256.17-2.88,10,4.67,20.39,10,31.4,9.25,8.16-.57,15.65-4.47,23-8,80.37-38.38,178.26-37.92,258.27,1.21,7.78,3.81,15.89,8.07,24.54,7.58,6.81-.38,13.06-3.68,19.18-6.71,78.72-38.9,174.79-40.51,255-4.87V280.5s-70-153-312-153-339-128-339-128H-.5V720.42Q7.45,720,15.5,720Z" transform="translate(0.5 0.5)"/></svg>